# xmcd
#
# Track frame offsets: 
#        150
#        24773
#        55561
#        80115
#
# Disc length: 1375 seconds
#
# Revision: 0
# Processed by: cddbd v1.5.2PL0 Copyright (c) Steve Scherf et al.
# Submitted via: ExactAudioCopy v0.95a4
#
DISCID=22055d04
DTITLE=Taylor Scott - Soul Satisfaction
DYEAR=2012
DGENRE=Blues
TTITLE0=What Can I Get For A Dime?
TTITLE1=Learning To Live
TTITLE2=Groove I Use
TTITLE3=Bad Spot
EXTD=
EXTT0=
EXTT1=
EXTT2=
EXTT3=
PLAYORDER=
